<svg width="351" height="51" viewBox="0 0 351 51" fill="none" xmlns="http://www.w3.org/2000/svg">
<path fill-rule="evenodd" clip-rule="evenodd" d="M7.28137 0.00590565C9.29183 -0.054367 11.2017 0.346714 13.011 1.20917C21.6788 6.75148 30.3468 12.2938 39.0146 17.8361C42.6242 21.1143 43.3219 24.9428 41.1081 29.3218C40.5653 30.0799 39.941 30.7725 39.235 31.4002C30.4922 36.8335 21.8242 42.3757 13.2313 48.0272C7.58749 50.6485 3.36373 49.2265 0.560102 43.761C-0.436916 40.8708 -0.0696484 38.1726 1.66195 35.6663C4.52038 33.0476 7.31172 30.3492 10.036 27.5716C10.8946 26.6473 11.6659 25.6628 12.3499 24.6182C9.16445 20.9451 5.74872 17.4813 2.10269 14.2263C-1.27937 9.23176 -0.581545 4.8927 4.1962 1.20917C5.19163 0.650309 6.22003 0.249206 7.28137 0.00590565Z" fill="#292AD3"/>
<path fill-rule="evenodd" clip-rule="evenodd" d="M7.28163 1.75592C9.52303 1.61063 11.5064 2.23049 13.2316 3.61551C15.3071 5.29608 16.813 7.37445 17.7492 9.85062C18.2296 12.2167 18.0826 14.5504 17.3084 16.8514C16.3406 19.139 15.0918 21.2539 13.5622 23.1959C10.2638 19.4109 6.73787 15.8374 2.98442 12.4759C0.627615 7.3857 2.06002 3.81235 7.28163 1.75592Z" fill="#FDFEFE"/>
<path d="M231.557 35.3627H231.459C231.165 36.113 230.741 36.8306 230.187 37.5156C229.632 38.168 228.947 38.7551 228.132 39.277C227.349 39.7989 226.452 40.2066 225.441 40.5002C224.429 40.7938 223.32 40.9406 222.113 40.9406C219.439 40.9406 217.367 40.3697 215.9 39.2281C214.432 38.0538 213.698 36.2598 213.698 33.846C213.698 32.3781 213.991 31.1875 214.578 30.2742C215.166 29.3283 215.9 28.5943 216.78 28.0724C217.694 27.5179 218.688 27.1265 219.765 26.8982C220.874 26.6698 221.934 26.5067 222.945 26.4089L225.832 26.1642C227.169 26.0664 228.213 25.9196 228.963 25.7239C229.746 25.4956 230.333 25.202 230.725 24.8432C231.116 24.4518 231.361 23.9625 231.459 23.3753C231.557 22.7882 231.605 22.0543 231.605 21.1736C231.605 20.4886 231.475 19.8525 231.214 19.2654C230.953 18.6782 230.545 18.1563 229.991 17.6997C229.436 17.243 228.719 16.8842 227.838 16.6232C226.957 16.3623 225.881 16.2318 224.609 16.2318C222.358 16.2318 220.531 16.7863 219.129 17.8954C217.759 19.0044 217.009 20.6843 216.878 22.935H215.019C215.149 20.1624 216.03 18.0911 217.661 16.7211C219.324 15.3185 221.673 14.6172 224.707 14.6172C227.74 14.6172 229.942 15.2206 231.312 16.4275C232.715 17.6018 233.416 19.1512 233.416 21.0757V35.7052C233.416 36.0641 233.416 36.4229 233.416 36.7817C233.448 37.1405 233.514 37.4667 233.612 37.7602C233.709 38.0538 233.872 38.2984 234.101 38.4942C234.329 38.6572 234.655 38.7388 235.079 38.7388C235.406 38.7388 235.862 38.6899 236.449 38.592V40.1577C235.96 40.2882 235.454 40.3534 234.933 40.3534C234.182 40.3534 233.579 40.2556 233.122 40.0599C232.698 39.8641 232.372 39.6032 232.144 39.277C231.915 38.9508 231.752 38.5757 231.654 38.1517C231.589 37.695 231.557 37.2057 231.557 36.6838V35.3627ZM231.557 26.0664C231.1 26.6209 230.399 26.996 229.453 27.1917C228.539 27.3875 227.512 27.5342 226.37 27.6321L223.239 27.9257C222.325 28.0235 221.412 28.1703 220.499 28.366C219.585 28.5291 218.754 28.8227 218.003 29.2467C217.286 29.6708 216.699 30.2579 216.242 31.0081C215.785 31.7257 215.557 32.6717 215.557 33.846C215.557 35.7052 216.144 37.0915 217.318 38.0049C218.493 38.8856 220.107 39.3259 222.162 39.3259C224.283 39.3259 225.962 38.9508 227.202 38.2006C228.441 37.4177 229.387 36.537 230.04 35.5585C230.692 34.5473 231.1 33.585 231.263 32.6717C231.459 31.7258 231.557 31.0897 231.557 30.7635V26.0664Z" fill="#292AD3"/>
<path d="M189.5 15.2043H191.36V20.5864H191.458C191.784 19.6405 192.24 18.8087 192.828 18.0911C193.447 17.3409 194.149 16.7048 194.932 16.1829C195.747 15.661 196.628 15.2696 197.574 15.0086C198.52 14.7477 199.482 14.6172 200.46 14.6172C201.928 14.6172 203.168 14.7966 204.179 15.1554C205.223 15.5142 206.071 15.9872 206.723 16.5743C207.376 17.1615 207.881 17.8301 208.24 18.5804C208.631 19.298 208.909 20.0319 209.072 20.7821C209.235 21.5324 209.333 22.2663 209.365 22.9839C209.398 23.6689 209.414 24.2724 209.414 24.7943V40.3534H207.555V24.4518C207.555 23.832 207.506 23.0491 207.408 22.1032C207.31 21.1573 207.017 20.2602 206.528 19.4122C206.071 18.5314 205.353 17.7812 204.375 17.1615C203.429 16.5417 202.108 16.2318 200.411 16.2318C198.976 16.2318 197.704 16.4928 196.595 17.0147C195.486 17.5366 194.54 18.2705 193.757 19.2164C192.974 20.1298 192.371 21.2388 191.947 22.5436C191.555 23.8157 191.36 25.2183 191.36 26.7514V40.3534H189.5V15.2043Z" fill="#292AD3"/>
<path d="M162.046 27.7789C162.046 25.9848 162.291 24.305 162.78 22.7393C163.302 21.1409 164.052 19.7383 165.031 18.5314C166.009 17.3245 167.216 16.3786 168.651 15.6936C170.087 14.976 171.734 14.6172 173.593 14.6172C175.452 14.6172 177.1 14.976 178.535 15.6936C179.97 16.3786 181.177 17.3245 182.156 18.5314C183.134 19.7383 183.868 21.1409 184.357 22.7393C184.879 24.305 185.14 25.9848 185.14 27.7789C185.14 29.5729 184.879 31.2691 184.357 32.8674C183.868 34.4657 183.134 35.8683 182.156 37.0752C181.177 38.2495 179.97 39.1955 178.535 39.9131C177.1 40.5981 175.452 40.9406 173.593 40.9406C171.734 40.9406 170.087 40.5981 168.651 39.9131C167.216 39.1955 166.009 38.2495 165.031 37.0752C164.052 35.8683 163.302 34.4657 162.78 32.8674C162.291 31.2691 162.046 29.5729 162.046 27.7789ZM163.905 27.7789C163.905 29.2793 164.117 30.7309 164.541 32.1335C164.966 33.5035 165.585 34.7267 166.401 35.8031C167.216 36.8795 168.227 37.7439 169.434 38.3963C170.641 39.0161 172.027 39.3259 173.593 39.3259C175.159 39.3259 176.545 39.0161 177.752 38.3963C178.959 37.7439 179.97 36.8795 180.786 35.8031C181.601 34.7267 182.221 33.5035 182.645 32.1335C183.069 30.7309 183.281 29.2793 183.281 27.7789C183.281 26.2784 183.069 24.8432 182.645 23.4732C182.221 22.0706 181.601 20.8311 180.786 19.7546C179.97 18.6782 178.959 17.8301 177.752 17.2104C176.545 16.558 175.159 16.2318 173.593 16.2318C172.027 16.2318 170.641 16.558 169.434 17.2104C168.227 17.8301 167.216 18.6782 166.401 19.7546C165.585 20.8311 164.966 22.0706 164.541 23.4732C164.117 24.8432 163.905 26.2784 163.905 27.7789Z" fill="#292AD3"/>
<path d="M155.442 10.4584V5.41876H157.301V10.4584H155.442ZM155.442 40.3535V15.2044H157.301V40.3535H155.442Z" fill="#292AD3"/>
<path d="M148.565 22.9839C148.467 21.8749 148.173 20.8963 147.684 20.0482C147.227 19.2001 146.624 18.4988 145.874 17.9443C145.123 17.3898 144.243 16.9657 143.232 16.6722C142.253 16.3786 141.193 16.2318 140.051 16.2318C138.486 16.2318 137.099 16.558 135.892 17.2104C134.685 17.8301 133.674 18.6782 132.859 19.7546C132.043 20.7984 131.424 22.0053 130.999 23.3753C130.575 24.7127 130.363 26.099 130.363 27.5342C130.363 29.2304 130.559 30.7961 130.951 32.2313C131.342 33.6666 131.945 34.9224 132.761 35.9988C133.576 37.0426 134.588 37.8581 135.794 38.4452C137.001 39.0324 138.42 39.3259 140.051 39.3259C141.225 39.3259 142.302 39.1302 143.28 38.7388C144.292 38.3474 145.172 37.8092 145.923 37.1242C146.705 36.4392 147.342 35.6237 147.831 34.6778C148.32 33.6992 148.646 32.6391 148.809 31.4974H150.669C150.473 32.9979 150.065 34.3353 149.445 35.5095C148.826 36.6838 148.043 37.6787 147.097 38.4942C146.151 39.277 145.075 39.8804 143.868 40.3045C142.661 40.7285 141.389 40.9406 140.051 40.9406C137.996 40.9406 136.235 40.5818 134.767 39.8641C133.332 39.1139 132.141 38.119 131.195 36.8795C130.282 35.64 129.597 34.2211 129.14 32.6228C128.716 30.9918 128.504 29.2956 128.504 27.5342C128.504 25.7728 128.749 24.1093 129.238 22.5436C129.76 20.9779 130.51 19.6079 131.489 18.4336C132.467 17.2593 133.674 16.3297 135.109 15.6447C136.545 14.9597 138.192 14.6172 140.051 14.6172C141.421 14.6172 142.693 14.7966 143.868 15.1554C145.075 15.4816 146.135 15.9872 147.048 16.6722C147.994 17.3572 148.76 18.2379 149.348 19.3143C149.935 20.3581 150.294 21.5813 150.424 22.9839H148.565Z" fill="#292AD3"/>
<path d="M123.193 22.9839C123.095 21.8749 122.801 20.8963 122.312 20.0482C121.856 19.2001 121.252 18.4988 120.502 17.9443C119.752 17.3898 118.871 16.9657 117.86 16.6722C116.881 16.3786 115.821 16.2318 114.679 16.2318C113.114 16.2318 111.727 16.558 110.52 17.2104C109.314 17.8301 108.302 18.6782 107.487 19.7546C106.671 20.7984 106.052 22.0053 105.628 23.3753C105.204 24.7127 104.992 26.099 104.992 27.5342C104.992 29.2304 105.187 30.7961 105.579 32.2313C105.97 33.6666 106.574 34.9224 107.389 35.9988C108.205 37.0426 109.216 37.8581 110.423 38.4452C111.63 39.0324 113.048 39.3259 114.679 39.3259C115.854 39.3259 116.93 39.1302 117.909 38.7388C118.92 38.3474 119.801 37.8092 120.551 37.1242C121.334 36.4392 121.97 35.6237 122.459 34.6778C122.948 33.6992 123.274 32.6391 123.438 31.4974H125.297C125.101 32.9979 124.693 34.3353 124.074 35.5095C123.454 36.6838 122.671 37.6787 121.725 38.4942C120.779 39.277 119.703 39.8804 118.496 40.3045C117.289 40.7285 116.017 40.9406 114.679 40.9406C112.624 40.9406 110.863 40.5818 109.395 39.8641C107.96 39.1139 106.769 38.119 105.823 36.8795C104.91 35.64 104.225 34.2211 103.768 32.6228C103.344 30.9918 103.132 29.2956 103.132 27.5342C103.132 25.7728 103.377 24.1093 103.866 22.5436C104.388 20.9779 105.138 19.6079 106.117 18.4336C107.096 17.2593 108.302 16.3297 109.738 15.6447C111.173 14.9597 112.82 14.6172 114.679 14.6172C116.049 14.6172 117.322 14.7966 118.496 15.1554C119.703 15.4816 120.763 15.9872 121.676 16.6722C122.622 17.3572 123.389 18.2379 123.976 19.3143C124.563 20.3581 124.922 21.5813 125.052 22.9839H123.193Z" fill="#292AD3"/>
<path d="M85.9699 5.41876H88.3184L102.116 40.3535H99.8166L95.413 29.1489H78.6796L74.2271 40.3535H71.9275L85.9699 5.41876ZM94.728 27.2897L87.242 7.52268H87.1442L79.3646 27.2897H94.728Z" fill="#292AD3"/>
<path d="M339.688 45.2256C338.931 47.2985 337.878 48.7791 336.529 49.6674C335.18 50.5558 333.305 51 330.903 51C330.179 51 329.455 50.9671 328.732 50.9012C328.041 50.8683 327.333 50.819 326.609 50.7532V44.9789C327.268 45.0447 327.942 45.1105 328.633 45.1763C329.324 45.2421 330.015 45.2585 330.706 45.2256C331.627 45.1269 332.302 44.765 332.729 44.1399C333.19 43.5147 333.42 42.8238 333.42 42.067C333.42 41.5077 333.321 40.9813 333.124 40.4878L324.191 16.5515H331.643L337.418 34.0225H337.516L343.093 16.5515H350.348L339.688 45.2256Z" fill="#292AD3"/>
<path d="M298.468 24.3986C298.566 22.7535 298.978 21.3881 299.701 20.3023C300.425 19.2165 301.347 18.3446 302.465 17.6866C303.584 17.0286 304.834 16.5679 306.216 16.3047C307.631 16.0086 309.046 15.8605 310.46 15.8605C311.744 15.8605 313.043 15.9592 314.359 16.1567C315.675 16.3212 316.876 16.6666 317.962 17.1931C319.048 17.7195 319.936 18.4598 320.627 19.414C321.318 20.3352 321.664 21.569 321.664 23.1154V36.3914C321.664 37.543 321.729 38.6452 321.861 39.6981C321.993 40.7509 322.223 41.5406 322.552 42.067H315.445C315.313 41.6722 315.198 41.2774 315.1 40.8825C315.034 40.4548 314.984 40.0271 314.952 39.5994C313.833 40.7509 312.517 41.557 311.003 42.0177C309.49 42.4783 307.943 42.7086 306.364 42.7086C305.147 42.7086 304.012 42.5605 302.959 42.2644C301.906 41.9683 300.985 41.5077 300.195 40.8825C299.405 40.2574 298.78 39.4677 298.32 38.5136C297.892 37.5594 297.678 36.4243 297.678 35.1082C297.678 33.6605 297.925 32.4761 298.418 31.5548C298.945 30.6007 299.603 29.8439 300.392 29.2846C301.215 28.7252 302.136 28.314 303.156 28.0507C304.209 27.7546 305.262 27.5243 306.315 27.3598C307.368 27.1953 308.404 27.0637 309.424 26.965C310.444 26.8663 311.349 26.7182 312.138 26.5208C312.928 26.3234 313.553 26.0437 314.014 25.6818C314.474 25.287 314.688 24.7276 314.655 24.0038C314.655 23.247 314.524 22.6548 314.261 22.2271C314.03 21.7665 313.701 21.421 313.274 21.1907C312.879 20.9275 312.402 20.7629 311.842 20.6971C311.316 20.5984 310.74 20.5491 310.115 20.5491C308.733 20.5491 307.647 20.8452 306.858 21.4374C306.068 22.0297 305.607 23.0167 305.476 24.3986H298.468ZM314.655 29.5807C314.359 29.8439 313.981 30.0578 313.52 30.2223C313.093 30.3539 312.616 30.469 312.089 30.5677C311.596 30.6665 311.069 30.7487 310.51 30.8145C309.95 30.8803 309.391 30.9626 308.832 31.0613C308.305 31.16 307.779 31.2916 307.252 31.4561C306.759 31.6206 306.315 31.8509 305.92 32.147C305.558 32.4103 305.262 32.7557 305.032 33.1835C304.801 33.6112 304.686 34.1541 304.686 34.8121C304.686 35.4373 304.801 35.9637 305.032 36.3914C305.262 36.8191 305.574 37.1646 305.969 37.4278C306.364 37.6581 306.825 37.8226 307.351 37.9214C307.878 38.0201 308.42 38.0694 308.98 38.0694C310.362 38.0694 311.431 37.8391 312.188 37.3785C312.945 36.9178 313.504 36.375 313.866 35.7498C314.228 35.0918 314.442 34.4337 314.507 33.7757C314.606 33.1177 314.655 32.5912 314.655 32.1964V29.5807Z" fill="#292AD3"/>
<path d="M286.237 6.82916H293.245V42.0672H286.237V6.82916Z" fill="#292AD3"/>
<path d="M261.61 23.4118H267.631C268.519 23.4118 269.375 23.346 270.197 23.2144C271.02 23.0828 271.744 22.836 272.369 22.4741C272.994 22.0793 273.488 21.5364 273.85 20.8454C274.244 20.1545 274.442 19.2497 274.442 18.131C274.442 17.0123 274.244 16.1075 273.85 15.4166C273.488 14.7257 272.994 14.1992 272.369 13.8373C271.744 13.4425 271.02 13.1793 270.197 13.0476C269.375 12.916 268.519 12.8502 267.631 12.8502H261.61V23.4118ZM253.862 6.82916H269.753C271.958 6.82916 273.833 7.15818 275.38 7.81623C276.926 8.44136 278.176 9.28037 279.13 10.3332C280.117 11.3861 280.825 12.587 281.253 13.936C281.713 15.285 281.943 16.6833 281.943 18.131C281.943 19.5458 281.713 20.9441 281.253 22.326C280.825 23.675 280.117 24.8759 279.13 25.9288C278.176 26.9817 276.926 27.8371 275.38 28.4952C273.833 29.1203 271.958 29.4329 269.753 29.4329H261.61V42.0672H253.862V6.82916Z" fill="#292AD3"/>
</svg>
